<svg xmlns="http://www.w3.org/2000/svg" width="20.5" height="20.535" viewBox="0 0 20.5 20.535">
  <path id="Path_874" data-name="Path 874" d="M10,.667,10.433.16a.667.667,0,0,0-.867,0Zm-9.333,8L.233,8.16,0,8.36v.307ZM7.333,19.333V20A.667.667,0,0,0,8,19.333Zm5.333,0H12a.667.667,0,0,0,.667.667ZM19.333,8.667H20V8.36l-.233-.2ZM2,20H7.333V18.667H2ZM19.767,8.16l-9.333-8L9.567,1.173l9.333,8,.867-1.013Zm-10.2-8-9.333,8L1.1,9.173l9.333-8L9.567.16ZM8,19.333v-4H6.667v4Zm4-4v4h1.333v-4ZM12.667,20H18V18.667H12.667ZM20,18V8.667H18.667V18ZM0,8.667V18H1.333V8.667Zm10,4.667a2,2,0,0,1,2,2h1.333A3.333,3.333,0,0,0,10,12ZM10,12a3.333,3.333,0,0,0-3.333,3.333H8a2,2,0,0,1,2-2Zm8,8a2,2,0,0,0,2-2H18.667a.667.667,0,0,1-.667.667ZM2,18.667A.667.667,0,0,1,1.333,18H0a2,2,0,0,0,2,2Z" transform="translate(0.25 0.285)" fill="#4763e4" stroke="#4763e4" stroke-width="0.5"/>
</svg>
