<svg id="Backend_App" data-name="Backend App" xmlns="http://www.w3.org/2000/svg" width="60" height="57.167" viewBox="0 0 60 57.167">
  <path id="Path_804" data-name="Path 804" d="M59.984,43.693A2.82,2.82,0,0,1,57.1,45.806c-.11,0-.235.156-.3.266-.11.188-.125.407-.235.595a1.6,1.6,0,0,0,.125,2.144,2.363,2.363,0,0,1-.25,3.02,23.987,23.987,0,0,1-1.784,1.784c-1.127.986-2.52.829-3.881-.391-.657.25-1.33.5-1.972.8-.11.047-.172.282-.172.423a2.688,2.688,0,0,1-2.88,2.723H43.944a2.61,2.61,0,0,1-2.723-2.551c-.031-.454-.156-.689-.595-.751a.332.332,0,0,1-.11-.047,1.848,1.848,0,0,0-2.457.11,2.287,2.287,0,0,1-2.911-.329,22.74,22.74,0,0,1-1.737-1.737,2.561,2.561,0,0,1,.031-3.552.621.621,0,0,0,.125-.892,2.958,2.958,0,0,1-.36-.861c-.125-.626-.454-.782-1.1-.782-2.989.031-5.978.016-8.967.016A1.19,1.19,0,0,1,21.8,44.71a1.16,1.16,0,0,1,1.268-1.268c2.034-.016,4.053,0,6.088,0H29.8V41.3a2.688,2.688,0,0,1,2.723-2.942c.172-.016.36-.2.5-.344.078-.078.078-.219.125-.329a1.858,1.858,0,0,0-.11-2.41,2.288,2.288,0,0,1,.313-2.958,22.74,22.74,0,0,1,1.737-1.737,2.562,2.562,0,0,1,3.552.047.636.636,0,0,0,.861.125c.516-.266,1.064-.469,1.6-.689a6.879,6.879,0,0,1,.172-1.158,2.428,2.428,0,0,1,2.16-1.862,17.177,17.177,0,0,1,2.692-.031,2.5,2.5,0,0,1,2.426,2.394c.031.516.2.8.7.876a.568.568,0,0,1,.266.11,1.518,1.518,0,0,0,2.144-.125c.344-.344,1.033-.344,1.643-.532V18.013H2.394c-.016.2-.031.407-.031.626v20.5a4.924,4.924,0,0,0,.8,2.879,3.033,3.033,0,0,0,2.66,1.424c2.191-.016,4.366-.016,6.557,0a1.166,1.166,0,0,1,1.268,1.111,1.107,1.107,0,0,1-1.017,1.221c-2.6.016-5.2.141-7.778-.078C2.426,45.493.532,43.3.125,40.7A9.138,9.138,0,0,1,0,39.249V6.573a6.673,6.673,0,0,1,2.363-5.4A4.926,4.926,0,0,1,5.587,0H50.094a5.692,5.692,0,0,1,5.415,4.742,11.052,11.052,0,0,1,.2,2.144c.016,8.028,0,16.041.016,24.069a1.257,1.257,0,0,0,.266.829c1.471,1.612,1.5,2.739.063,4.413.25.642.5,1.283.782,1.925a.424.424,0,0,0,.3.219A2.85,2.85,0,0,1,60,40.391C59.984,41.5,59.984,42.6,59.984,43.693ZM53.333,15.571V13c0-2.347.047-4.695-.031-7.027a3.537,3.537,0,0,0-3.8-3.631H5.915A3.11,3.11,0,0,0,3.427,3.412a4.561,4.561,0,0,0-1.08,3.083V15.1c0,.156.031.3.047.469ZM36.854,32.285c-.078.016-.156.016-.188.047-.25.219-.485.454-.72.689-1.017,1.017-1.017,1.017-.031,2.05a1.283,1.283,0,0,1,.235,1.784,23.838,23.838,0,0,0-1.127,2.692c-.313.923-.595,1.205-1.6,1.205-1.283.016-1.283.016-1.283,1.33.016,1.581-.172,1.362,1.362,1.377.923.016,1.205.266,1.5,1.142a19.48,19.48,0,0,0,1.064,2.582c.485.97.485,1.3-.282,2.066-1.017,1.017-.986.751,0,1.753,1,1.017,1,1.017,2.05.016a1.257,1.257,0,0,1,1.737-.235,22.808,22.808,0,0,0,2.629,1.111c1.1.36,1.315.579,1.315,1.737,0,1.33-.125,1.189,1.189,1.189,1.487,0,1.487,0,1.518-1.455.016-.829.282-1.111,1.064-1.393a26.916,26.916,0,0,0,2.692-1.1c.97-.485,1.268-.485,2.066.282,1.017,1,.736.986,1.753-.016s1.017-1.017,0-2.05a1.272,1.272,0,0,1-.235-1.737,22.807,22.807,0,0,0,1.111-2.629c.36-1.064.563-1.283,1.69-1.283,1.362,0,1.221.11,1.221-1.236,0-1.424,0-1.424-1.44-1.471-.829-.016-1.127-.313-1.408-1.127A23.468,23.468,0,0,0,53.6,36.87a1.335,1.335,0,0,1,.282-1.925c.923-.923.923-.923,0-1.847-.986-.986-.986-.986-1.956-.016-.657.642-1.033.642-1.878.235a24.794,24.794,0,0,0-2.754-1.127c-.845-.3-1.127-.595-1.142-1.518-.016-1.315-.016-1.315-1.3-1.315-1.393,0-1.393,0-1.408,1.377-.016.892-.282,1.189-1.111,1.471a17.966,17.966,0,0,0-2.488,1c-1.174.595-1.393.61-2.332-.329a5.188,5.188,0,0,0-.423-.407A.73.73,0,0,0,36.854,32.285Z" fill="#212121"/>
  <path id="Path_805" data-name="Path 805" d="M151.7,168.187c-.939-1.064-1.847-2.066-2.723-3.067a1.221,1.221,0,0,1-.063-1.815,1.2,1.2,0,0,1,1.8.219c1.049,1.158,2.081,2.316,3.114,3.49a1.607,1.607,0,0,1,.016,2.316c-1.049,1.2-2.113,2.394-3.192,3.584a1.189,1.189,0,1,1-1.753-1.6C149.818,170.284,150.741,169.267,151.7,168.187Z" transform="translate(-125.28 -137.483)" fill="#212121"/>
  <path id="Path_806" data-name="Path 806" d="M45.25,168.228c.908,1.017,1.784,1.987,2.629,2.973a2.119,2.119,0,0,1,.469.72,1.1,1.1,0,0,1-.5,1.315,1.162,1.162,0,0,1-1.487-.219c-.673-.72-1.3-1.455-1.956-2.175-.438-.5-.892-.986-1.315-1.487a1.578,1.578,0,0,1-.016-2.222c1.064-1.221,2.144-2.426,3.224-3.631a1.178,1.178,0,1,1,1.753,1.565C47.159,166.1,46.22,167.132,45.25,168.228Z" transform="translate(-35.954 -137.524)" fill="#212121"/>
  <path id="Path_807" data-name="Path 807" d="M103.964,158.452c-.3,1.252-.548,2.363-.814,3.49-.5,2.128-1,4.257-1.534,6.369a2.076,2.076,0,0,1-.61,1,.972.972,0,0,1-1.252-.031,1.085,1.085,0,0,1-.469-1.221c.407-1.768.829-3.521,1.252-5.29.344-1.455.689-2.926,1.049-4.382a1.173,1.173,0,0,1,1.956-.736A3.941,3.941,0,0,1,103.964,158.452Z" transform="translate(-83.713 -132.708)" fill="#212121"/>
  <path id="Path_808" data-name="Path 808" d="M106.821,277.6a1.174,1.174,0,0,1-.016,2.347,1.223,1.223,0,0,1-1.205-1.189A1.21,1.21,0,0,1,106.821,277.6Z" transform="translate(-89.074 -234.157)" fill="#212121"/>
  <path id="Path_809" data-name="Path 809" d="M210.278,190.526a2.768,2.768,0,0,1,.266.188c.141.125.282.266.423.407.939.939,1.158.939,2.332.329a17.969,17.969,0,0,1,2.488-1c.829-.282,1.111-.579,1.111-1.471.016-1.377.016-1.377,1.408-1.377,1.283,0,1.283,0,1.3,1.315.016.923.3,1.221,1.142,1.518a22.11,22.11,0,0,1,2.754,1.127c.845.407,1.221.407,1.878-.235.986-.955.986-.955,1.956.016.908.908.908.908,0,1.847a1.335,1.335,0,0,0-.282,1.925,25.964,25.964,0,0,1,1.142,2.739c.282.8.579,1.1,1.408,1.127,1.44.047,1.44.047,1.44,1.471,0,1.33.141,1.236-1.221,1.236-1.127,0-1.33.2-1.69,1.283a24.031,24.031,0,0,1-1.111,2.629,1.257,1.257,0,0,0,.235,1.737c1,1.033,1.017,1.049,0,2.05s-.736,1.017-1.753.016c-.783-.767-1.08-.767-2.066-.282a21.087,21.087,0,0,1-2.692,1.1c-.783.266-1.049.563-1.064,1.393-.016,1.471-.016,1.471-1.518,1.455-1.315,0-1.189.141-1.189-1.189,0-1.158-.219-1.377-1.315-1.737a24.032,24.032,0,0,1-2.629-1.111,1.272,1.272,0,0,0-1.737.235c-1.033,1-1.033,1-2.05-.016-.986-1-1.017-.736,0-1.753.751-.751.767-1.1.282-2.066a19.482,19.482,0,0,1-1.064-2.582c-.3-.876-.579-1.142-1.5-1.142-1.534-.016-1.346.2-1.362-1.377,0-1.315,0-1.315,1.283-1.33.986,0,1.283-.282,1.6-1.205A23.834,23.834,0,0,1,209.6,195.1a1.283,1.283,0,0,0-.235-1.784c-.986-1.033-.986-1.033.031-2.05.235-.235.469-.454.72-.689C210.121,190.542,210.2,190.542,210.278,190.526Zm.829,9.812a7.214,7.214,0,1,0,7.214-7.214A7.23,7.23,0,0,0,211.107,200.339Z" transform="translate(-173.423 -158.242)" fill="#bfdbf7"/>
  <path id="Path_810" data-name="Path 810" d="M208.386,40.221c-1.768,0-3.552.031-5.321,0a3.954,3.954,0,0,1-2.473-6.964,3.826,3.826,0,0,1,2.582-.955c3.474-.016,6.948-.031,10.423,0a3.968,3.968,0,1,1-.063,7.934h-.11c-1.674,0-3.365,0-5.039-.016Zm.063-5.556c-1.737,0-3.474-.016-5.211,0a1.6,1.6,0,1,0,0,3.192c3.427.016,6.87.016,10.3,0a1.6,1.6,0,1,0,0-3.192C211.828,34.65,210.138,34.666,208.448,34.666Z" transform="translate(-168.026 -27.232)" fill="#212121"/>
  <path id="Path_811" data-name="Path 811" d="M118.234,36.344a3.967,3.967,0,1,1-3.959-3.944A3.994,3.994,0,0,1,118.234,36.344Zm-2.363.031a1.6,1.6,0,1,0-1.643,1.581A1.606,1.606,0,0,0,115.871,36.375Z" transform="translate(-93.038 -27.33)" fill="#212121"/>
  <path id="Path_812" data-name="Path 812" d="M52.7,36.343A3.952,3.952,0,1,1,48.775,32.4,3.951,3.951,0,0,1,52.7,36.343Zm-2.363-.016a1.589,1.589,0,0,0-3.177.031,1.589,1.589,0,1,0,3.177-.031Z" transform="translate(-37.789 -27.329)" fill="#212121"/>
  <path id="Path_813" data-name="Path 813" d="M240.8,230.114a7.214,7.214,0,1,1,14.429.016,7.214,7.214,0,0,1-14.429-.016Zm2.363-.016a4.851,4.851,0,1,0,4.82-4.836A4.852,4.852,0,0,0,243.163,230.1Z" transform="translate(-203.116 -188.017)" fill="#212121"/>
  <path id="Path_814" data-name="Path 814" d="M221.186,47.463c1.69,0,3.4-.016,5.086,0a1.6,1.6,0,1,1,0,3.192c-3.427,0-6.87.016-10.3,0a1.6,1.6,0,1,1,0-3.192C217.712,47.447,219.449,47.463,221.186,47.463Z" transform="translate(-180.763 -40.029)" fill="#35cc62"/>
  <path id="Path_815" data-name="Path 815" d="M128.771,49.112a1.627,1.627,0,0,1-1.628,1.581,1.6,1.6,0,0,1,.047-3.192A1.613,1.613,0,0,1,128.771,49.112Z" transform="translate(-105.939 -40.067)" fill="#35cc62"/>
  <path id="Path_816" data-name="Path 816" d="M63.077,49.064a1.593,1.593,0,0,1-1.565,1.628,1.6,1.6,0,1,1,1.565-1.628Z" transform="translate(-50.526 -40.065)" fill="#35cc62"/>
</svg>
