<svg xmlns="http://www.w3.org/2000/svg" width="44" height="50" viewBox="0 0 44 50">
  <g id="Css" opacity="0.5">
    <path id="Path_881" data-name="Path 881" d="M0,0,3.855,44.841,21.849,50,40.03,44.931,44,.018Z" fill="#212121"/>
    <path id="Path_882" data-name="Path 882" d="M386.911,70.987l-3.257,37.13-14.754,4.3.06-41.621Z" transform="translate(-346.693 -66.538)" fill="#7a7a7a"/>
    <path id="Path_883" data-name="Path 883" d="M129.9,157.66l.674,5.472,13.159-.06-12.852,5.659.674,5.165,19.305.12L150,181.149l-6.393,1.475-5.96-1.661-.433-4.118-5.346.06.674,8.422,11.678,3.257,11.07-3.377L156.64,168.3l-11.738.06,12.726-5.225.06-5.532Z" transform="translate(-122.08 -148.113)" fill="#fff"/>
  </g>
</svg>
