<svg id="Frontend_App" data-name="Frontend App" xmlns="http://www.w3.org/2000/svg" width="60" height="57.622" viewBox="0 0 60 57.622">
  <path id="Path_817" data-name="Path 817" d="M0,.925A1.469,1.469,0,0,1,1.541,0H58.474C59.574,0,60,.426,60,1.526v11.36c0,1.1-.411,1.512-1.526,1.512q-28.466,0-56.932.015a1.553,1.553,0,0,1-1.526-.837C0,9.364,0,5.137,0,.925ZM57.637,2.392H2.378v9.628H57.637Z" fill="#212121"/>
  <path id="Path_818" data-name="Path 818" d="M19.963,134.965H2.747c-1.409,0-1.747-.352-1.747-1.776V111.217c0-1.365.367-1.717,1.747-1.717H37.194c1.38,0,1.747.367,1.747,1.717v22.03c0,1.365-.367,1.717-1.747,1.717Zm-1.791-6.414c.91-1.218,1.791-2.378,2.671-3.552,1.526-2.025,3.038-4.066,4.565-6.091.69-.925,1.482-.91,2.2,0a3.386,3.386,0,0,1,.205.279q4.139,5.526,8.293,11.052c.117.161.25.308.44.558V111.878H3.363V131.09c.191-.205.323-.338.44-.484l6.825-7.882c.954-1.115,1.556-1.115,2.51-.015.44.5.866,1,1.306,1.512C15.662,125.66,16.9,127.083,18.172,128.551Zm3.9-1.174h1.937c.631,0,1.248-.015,1.879.015a1.165,1.165,0,0,1,1.2,1.115,1.185,1.185,0,0,1-1.071,1.189,3.837,3.837,0,0,1-.587.029H20.7c-.176,0-.44.015-.528.132-.69.881-1.35,1.776-2.084,2.745H34.86a2.386,2.386,0,0,0-.161-.294q-2.158-2.884-4.33-5.753a.952.952,0,0,0-.69-.279c-1.952-.015-3.9.044-5.856-.044A1.618,1.618,0,0,0,22.076,127.377Zm-10.2-2.51c-2.231,2.583-4.418,5.108-6.649,7.691a3.222,3.222,0,0,0,.323.059H14.8a.7.7,0,0,0,.484-.235c.484-.6.939-1.233,1.438-1.893C15.134,128.624,13.534,126.79,11.876,124.867Zm16.512-1c-.66-.881-1.248-1.673-1.879-2.51-.646.866-1.233,1.644-1.879,2.51Z" transform="translate(-0.853 -93.429)" fill="#212121"/>
  <path id="Path_819" data-name="Path 819" d="M170.46,294.4h17.216c1.321,0,1.673.352,1.673,1.659v11.125c0,1.248-.4,1.629-1.659,1.629H153.259c-1.306,0-1.659-.367-1.659-1.673V296.073c0-1.336.338-1.673,1.644-1.673Zm-16.5,12.021h33.009v-9.658H153.963Z" transform="translate(-129.35 -251.191)" fill="#212121"/>
  <path id="Path_820" data-name="Path 820" d="M290.457,122.24v11.125c0,1.189-.4,1.6-1.57,1.6H271.67c-1.159,0-1.57-.426-1.57-1.6V111.1c0-1.174.426-1.6,1.57-1.6h17.216c1.159,0,1.57.426,1.57,1.6ZM288.079,132.6V111.892H272.492V132.6Z" transform="translate(-230.457 -93.429)" fill="#212121"/>
  <path id="Path_821" data-name="Path 821" d="M11.215,294.4h8.615c1.115,0,1.526.411,1.526,1.512v11.36c0,1.086-.44,1.526-1.526,1.526H2.556C1.44,308.8,1,308.358,1,307.242v-11.3c0-1.13.411-1.541,1.556-1.541Zm7.764,2.392H3.363v9.658H18.979Z" transform="translate(-0.853 -251.191)" fill="#212121"/>
  <path id="Path_822" data-name="Path 822" d="M121.392,224.635a1.624,1.624,0,0,1,1.747-1.145c1.952.073,3.9.015,5.856.044a.952.952,0,0,1,.69.279c1.468,1.908,2.891,3.831,4.33,5.753a2.385,2.385,0,0,1,.161.294H117.4c.734-.969,1.394-1.864,2.084-2.745.088-.117.352-.117.528-.132,1.585-.015,3.156,0,4.741,0a3.934,3.934,0,0,0,.587-.029,1.187,1.187,0,0,0,1.071-1.189,1.165,1.165,0,0,0-1.2-1.115c-.616-.029-1.248-.015-1.879-.015Z" transform="translate(-100.169 -190.687)" fill="#35cc62"/>
  <path id="Path_823" data-name="Path 823" d="M36.449,214.2c1.659,1.923,3.244,3.757,4.843,5.621-.5.66-.954,1.292-1.438,1.893a.7.7,0,0,1-.484.235q-4.623.022-9.247,0a3.219,3.219,0,0,1-.323-.059C32.046,219.308,34.218,216.783,36.449,214.2Z" transform="translate(-25.426 -182.762)" fill="#35cc62"/>
  <path id="Path_824" data-name="Path 824" d="M165.672,192.81H161.9c.646-.866,1.233-1.644,1.879-2.51C164.41,191.137,165.012,191.944,165.672,192.81Z" transform="translate(-138.138 -162.369)" fill="#35cc62"/>
  <path id="Path_825" data-name="Path 825" d="M87.716,55.7H99.311c.22,0,.426,0,.646.015a1.172,1.172,0,0,1,1.086,1.115,1.136,1.136,0,0,1-.939,1.159,3.063,3.063,0,0,1-.631.059H75.989a2.552,2.552,0,0,1-.749-.088,1.113,1.113,0,0,1-.851-1.174,1.129,1.129,0,0,1,1-1.057,5.657,5.657,0,0,1,.7-.029Z" transform="translate(-63.47 -47.525)" fill="#212121"/>
  <path id="Path_826" data-name="Path 826" d="M320.1,24.076a3.594,3.594,0,0,1,2.231-3.156,3.677,3.677,0,0,1,4.066.719,3.569,3.569,0,0,1,.925,3.919.675.675,0,0,0,.191.822,4.983,4.983,0,0,1,.749.822,1.129,1.129,0,0,1-1.556,1.57,4.389,4.389,0,0,1-.778-.7.718.718,0,0,0-.91-.22A3.743,3.743,0,0,1,320.1,24.076Zm2.348.25a1.407,1.407,0,0,0,1.365,1.394,1.387,1.387,0,1,0,.015-2.774A1.407,1.407,0,0,0,322.448,24.326Z" transform="translate(-273.119 -17.574)" fill="#212121"/>
  <path id="Path_827" data-name="Path 827" d="M271.558,55.8a1.111,1.111,0,0,1,1.145,1.145,1.153,1.153,0,1,1-2.3-.015A1.128,1.128,0,0,1,271.558,55.8Z" transform="translate(-230.711 -47.61)" fill="#212121"/>
  <path id="Path_828" data-name="Path 828" d="M85.575,143.049a4.128,4.128,0,1,1,4.315-3.86A4.156,4.156,0,0,1,85.575,143.049Zm2-4.095a1.785,1.785,0,0,0-1.761-1.805,1.791,1.791,0,1,0,1.761,1.805Z" transform="translate(-69.65 -115.016)" fill="#212121"/>
  <path id="Path_829" data-name="Path 829" d="M229.5,337.648h-9.54c-.837,0-1.277-.308-1.394-.954a1.092,1.092,0,0,1,.793-1.306,3.167,3.167,0,0,1,.749-.088h18.8a3.161,3.161,0,0,1,.749.073,1.093,1.093,0,0,1,.851,1.174,1.115,1.115,0,0,1-.983,1.057,4.649,4.649,0,0,1-.646.029Q234.185,337.656,229.5,337.648Z" transform="translate(-186.462 -286.088)" fill="#212121"/>
  <path id="Path_830" data-name="Path 830" d="M189.287,337.819a1.16,1.16,0,1,1-.029-2.319,1.16,1.16,0,0,1,.029,2.319Z" transform="translate(-160.491 -286.258)" fill="#212121"/>
  <path id="Path_831" data-name="Path 831" d="M303.085,170.762c1.644,0,3.273-.015,4.917,0,.954.015,1.512.7,1.262,1.512a1.211,1.211,0,0,1-1.277.822c-1.438.015-2.891,0-4.33,0h-5.445c-.778,0-1.262-.338-1.38-.91a1.166,1.166,0,0,1,1.277-1.424C299.768,170.747,301.426,170.762,303.085,170.762Z" transform="translate(-253.241 -145.694)" fill="#212121"/>
  <path id="Path_832" data-name="Path 832" d="M303.146,205.058h-4.917a1.173,1.173,0,1,1-.059-2.334c.939-.029,1.879,0,2.8,0h7.016c.939,0,1.512.558,1.394,1.321a1.16,1.16,0,0,1-1.292,1.013C306.463,205.073,304.8,205.058,303.146,205.058Z" transform="translate(-253.332 -172.959)" fill="#212121"/>
  <path id="Path_833" data-name="Path 833" d="M303.185,141.027H298.5a3.063,3.063,0,0,1-.631-.059,1.087,1.087,0,0,1-.91-1.233,1.114,1.114,0,0,1,1.071-1.042c.543-.029,1.086-.015,1.644-.015h8.19a4.756,4.756,0,0,1,.646.029,1.186,1.186,0,0,1,.969,1.1,1.158,1.158,0,0,1-.851,1.13,3.164,3.164,0,0,1-.749.088Z" transform="translate(-253.371 -118.322)" fill="#212121"/>
  <path id="Path_834" data-name="Path 834" d="M331.114,237.006c-.9,0-1.791.015-2.7,0-.807-.015-1.292-.426-1.321-1.1a1.156,1.156,0,0,1,1.262-1.233c1.849-.029,3.713-.029,5.563,0a1.165,1.165,0,1,1-.059,2.319C332.949,237.02,332.039,237.006,331.114,237.006Z" transform="translate(-279.084 -200.21)" fill="#212121"/>
  <path id="Path_835" data-name="Path 835" d="M296.8,235.943a1.149,1.149,0,0,1,1.159-1.145,1.16,1.16,0,1,1-.044,2.319A1.12,1.12,0,0,1,296.8,235.943Z" transform="translate(-253.237 -200.336)" fill="#212121"/>
  <path id="Path_836" data-name="Path 836" d="M101.2,152.519a1.8,1.8,0,0,1-1.805,1.761,1.791,1.791,0,1,1,1.805-1.761Z" transform="translate(-83.275 -128.58)" fill="#fff"/>
</svg>
