<?xml version="1.0" encoding="utf-8"?>
<!-- Generator: Adobe Illustrator 25.0.1, SVG Export Plug-In . SVG Version: 6.00 Build 0)  -->
<svg version="1.1" id="Layer_1" xmlns="http://www.w3.org/2000/svg" xmlns:xlink="http://www.w3.org/1999/xlink" x="0px" y="0px"
	height="20" width="20" viewBox="0 0 20 20" style="enable-background:new 0 0 20 20;" xml:space="preserve">
<style type="text/css">
	.st0{fill:#4763E4;}
</style>
<path id="Path_781" class="st0" d="M7.8,16.3c0.4-0.1,0.6-0.5,0.5-0.9c-0.1-0.4-0.5-0.6-0.9-0.5c0,0,0,0-0.1,0L7.8,16.3z M2.5,12
	l-0.7-0.2l-0.4,1.4l0.7,0.2L2.5,12L2.5,12z M12.7,19.3V20h1.5v-0.7H12.7z M12.8,12.2l-0.1-0.7c-0.4,0-0.7,0.4-0.7,0.8
	c0,0.2,0.1,0.3,0.2,0.4L12.8,12.2L12.8,12.2z M17.9,6.7h0.7l0,0H17.9z M16.6,3.7L16,3.5c-0.1,0.3,0,0.6,0.2,0.8
	C16.1,4.2,16.6,3.7,16.6,3.7z M16.6,0.8l0.7-0.3C17.2,0.3,17,0.1,16.8,0L16.6,0.8z M13.4,1.9l-0.2,0.7c0.2,0.1,0.4,0,0.6-0.1
	L13.4,1.9z M7.7,1.9L7.3,2.5c0.2,0.1,0.4,0.1,0.6,0.1L7.7,1.9z M4.5,0.8L4.3,0.1C4.1,0.1,3.9,0.3,3.8,0.5L4.5,0.8z M4.4,3.7l0.5,0.5
	C5.1,4,5.2,3.7,5.1,3.5C5.1,3.5,4.4,3.7,4.4,3.7z M3.2,6.7h0.7l0,0H3.2z M8.2,12.2l0.5,0.5c0.3-0.3,0.3-0.8,0-1
	c-0.1-0.1-0.3-0.2-0.4-0.2L8.2,12.2L8.2,12.2z M7.6,14.1h0.7v-0.1L7.6,14.1z M6.9,19.3V20h1.5v-0.7H6.9z M7.4,14.9
	c-0.6,0.2-1.2,0.3-1.8,0.1c-0.4-0.1-0.7-0.4-0.9-0.7c-0.1-0.2-0.3-0.4-0.4-0.6c-0.1-0.2-0.3-0.4-0.4-0.7C3.5,12.5,3,12.1,2.5,12
	l-0.4,1.4c0.1,0,0.3,0.1,0.5,0.5c0.1,0.2,0.2,0.4,0.4,0.6s0.3,0.5,0.5,0.7c0.4,0.6,1,1,1.6,1.2c0.9,0.2,1.8,0.2,2.7-0.1L7.4,14.9
	L7.4,14.9z M14.2,14c0-0.4,0-0.9-0.2-1.3c-0.1-0.4-0.4-0.8-0.7-1.1l-1,1c0.2,0.1,0.3,0.3,0.3,0.5c0.1,0.3,0.1,0.5,0.1,0.8L14.2,14z
	 M12.9,12.9c1.4-0.1,2.8-0.6,3.9-1.4c1.3-1.3,2-3,1.8-4.8h-1.5c0.1,1.4-0.3,2.7-1.3,3.7c-0.9,0.7-2,1-3.1,1.1L12.9,12.9z M18.6,6.7
	c0-1.3-0.5-2.5-1.4-3.5l-1,1c0.6,0.6,1,1.5,1,2.4L18.6,6.7L18.6,6.7z M17.3,4c0.2-0.6,0.3-1.2,0.3-1.8l-1.5,0c0,0.4-0.1,0.8-0.2,1.2
	L17.3,4z M17.6,2.2c0-0.6-0.1-1.2-0.4-1.8l-1.3,0.6c0.2,0.4,0.3,0.8,0.3,1.2L17.6,2.2L17.6,2.2z M16.6,0.8C16.8,0,16.8,0,16.8,0l0,0
	l0,0h-0.1c-0.1,0-0.2,0-0.3,0c-0.3,0-0.5,0-0.7,0.1c-1,0.2-1.9,0.7-2.7,1.2l0.8,1.2c0.7-0.5,1.4-0.8,2.2-1c0.1,0,0.3,0,0.4,0h0h0h0
	h0C16.4,1.5,16.4,1.5,16.6,0.8L16.6,0.8z M13.6,1.2c-2-0.5-4.1-0.5-6.1,0l0.4,1.4c1.7-0.5,3.6-0.5,5.3,0L13.6,1.2z M8.1,1.3
	c-0.8-0.6-1.7-1-2.7-1.2C5.2,0,4.9,0,4.7,0C4.5,0,4.4,0,4.3,0l0,0l0,0l0.2,0.7l0.2,0.7h0h0l0,0c0.1,0,0.3,0,0.4,0
	c0.8,0.2,1.5,0.6,2.2,1L8.1,1.3L8.1,1.3z M3.8,0.4C3.6,1,3.4,1.6,3.4,2.2l1.5,0c0-0.4,0.1-0.8,0.3-1.2L3.8,0.4z M3.4,2.2
	c0,0.6,0.1,1.2,0.3,1.8l1.4-0.5C5,3.1,4.9,2.7,4.9,2.2L3.4,2.2L3.4,2.2z M3.9,3.2c-0.5,0.5-0.8,1-1.1,1.6l1.4,0.6
	c0.2-0.4,0.4-0.8,0.7-1.1L3.9,3.2L3.9,3.2z M2.8,4.8C2.6,5.4,2.5,6,2.5,6.7h1.5c0-0.5,0.1-0.9,0.3-1.3L2.8,4.8L2.8,4.8z M2.5,6.7
	C2.3,8.5,3,10.2,4.3,11.5c1.1,0.9,2.5,1.4,3.9,1.4l0.2-1.5c-1.1-0.1-2.2-0.4-3.1-1.1c-1-1-1.5-2.3-1.3-3.7L2.5,6.7L2.5,6.7z
	 M7.7,11.7c-0.7,0.7-1,1.6-0.9,2.5l1.5-0.1c-0.1-0.5,0.1-1,0.4-1.4L7.7,11.7L7.7,11.7z M6.9,14.1v5.1h1.5v-5.1H6.9z M14.2,19.3v-2.2
	h-1.5v2.2L14.2,19.3z M14.2,17.1v-3h-1.5v3L14.2,17.1z"/>
</svg>
