<svg xmlns="http://www.w3.org/2000/svg" width="44" height="50" viewBox="0 0 44 50">
  <g id="Html" opacity="0.5">
    <path id="Path_884" data-name="Path 884" d="M0,0,4.28,45,22,50l18.018-5.1L44,0Z" fill="#212121"/>
    <path id="Path_885" data-name="Path 885" d="M253.87,40.3l-.07,42.694,14.4-4.006L271.808,40.3Z" transform="translate(-231.7 -36.791)" fill="#7a7a7a"/>
    <path id="Path_886" data-name="Path 886" d="M267.6,103.9l-.461,5.538-13.34.07V103.97Z" transform="translate(-231.7 -94.853)" fill="#fff"/>
    <path id="Path_887" data-name="Path 887" d="M265.809,234.1l-1.332,16.675-11.338,3.265v-5.669l6.069-1.663.662-7.14H253V234.1Z" transform="translate(-230.969 -213.715)" fill="#fff"/>
    <path id="Path_888" data-name="Path 888" d="M96.8,104.761l1.358,16.649,12.243.026v-5.468l-7.271-.2-.331-5.4,7.672-.131V104.7Z" transform="translate(-88.371 -95.583)" fill="#fff"/>
    <path id="Path_889" data-name="Path 889" d="M114.6,328.1h5.782l.313,4.354,6.1,1.733v5.669l-11.39-3.135Z" transform="translate(-104.621 -299.53)" fill="#fff"/>
  </g>
</svg>
