<svg xmlns="http://www.w3.org/2000/svg" width="44" height="50" viewBox="0 0 44 50">
  <g id="JavaScript" opacity="0.5">
    <path id="Path_890" data-name="Path 890" d="M0,0,4.289,45.006,22.01,50l18.013-5.092L44,0Z" fill="#212121"/>
    <path id="Path_891" data-name="Path 891" d="M114.4,18.4V60.8L128.893,57l3.31-38.5Z" transform="translate(-91.995 -14.796)" fill="#7a7a7a"/>
    <path id="Path_892" data-name="Path 892" d="M135.973,44.818l-.47,5.5h-8.245v5.6l7.756.02L133.408,72.9l-11.849,2.644-.059-5.64,6.913-1.214.548-7.246h-7.4V44.7Z" transform="translate(-97.704 -35.946)" fill="#fff"/>
    <path id="Path_893" data-name="Path 893" d="M33.45,44.9l.509,5.66,6.208-.059V69.3l-3.055-.45-.353-4.446-5.66.059.8,8.6,13.807,2.7.1-30.866Z" transform="translate(-25.009 -36.106)" fill="#fff"/>
  </g>
</svg>
