<svg id="Logo" xmlns="http://www.w3.org/2000/svg" height="100%" width="100%" viewBox="100 0 768 768"><defs><style>.cls-1{fill:#4763e4;}.cls-2{fill:#35cc62;}</style></defs><rect class="cls-1" x="101" y="309.7" width="30" height="240"/><rect class="cls-1" x="161" y="218.3" width="30" height="240"/><rect class="cls-1" x="131" y="309.7" width="30" height="30"/><rect class="cls-1" x="191" y="309.7" width="30" height="30"/><rect class="cls-1" x="191" y="428.3" width="30" height="30"/><rect class="cls-1" x="221" y="338.3" width="30" height="30"/><rect class="cls-1" x="221" y="398.3" width="30" height="30"/><rect class="cls-2" x="251" y="368.3" width="30" height="30"/><rect class="cls-1" x="131" y="218.3" width="30" height="30"/><path class="cls-1" d="M168.58,531V549.7H161V491.14h16.62A20.29,20.29,0,0,1,189.55,497a19.92,19.92,0,0,1-14.06,34Zm0-32.21v24.6h6.91a12.3,12.3,0,0,0,0-24.6Z"/><path class="cls-1" d="M209.17,517.13q4.25-5.75,10.43-6V519a9.61,9.61,0,0,0-6.59,2.67,12.31,12.31,0,0,0-3.84,8.71V549.7h-7.58V512h7.58Z"/><path class="cls-1" d="M259.6,513.69v-2.64h7.61v37.7H259.6V544a17.21,17.21,0,0,1-12.74,5.67,20.83,20.83,0,1,1,0-41.65A17.25,17.25,0,0,1,259.6,513.69Zm0,18v-5.57a12.32,12.32,0,0,0-3.51-6.44,13.06,13.06,0,0,0-22.29,9.23,13.07,13.07,0,0,0,22.29,9.22A12.32,12.32,0,0,0,259.6,531.66Z"/><path class="cls-1" d="M274.53,542.16c2.74-.29,4.1-1.14,4.1-2.56V504.13h7.58v35.4q0,9.26-11.68,10.17Z"/><path class="cls-1" d="M315.38,538v-26.5H323V537.4a4.51,4.51,0,0,0,1.35,3.35,4.44,4.44,0,0,0,3.22,1.34q4.5,0,4.5-5.6v-25h7.62v26.39a11.9,11.9,0,0,1-3.55,8.2,11.63,11.63,0,0,1-8.57,3.58,10.83,10.83,0,0,1-8.31-3.51,11,11,0,0,1-8.34,3.51,12.13,12.13,0,0,1-12.12-11.78V511.53h7.58v25q0,5.6,4.54,5.6a4.46,4.46,0,0,0,3.22-1.32A4.29,4.29,0,0,0,315.38,538Z"/><path class="cls-1" d="M382.21,513.69v-2.64h7.62v37.7h-7.62V544a17.2,17.2,0,0,1-12.73,5.67,20.83,20.83,0,1,1,0-41.65A17.24,17.24,0,0,1,382.21,513.69Zm0,18v-5.57a12.32,12.32,0,0,0-3.51-6.44,13,13,0,1,0,0,18.45A12.32,12.32,0,0,0,382.21,531.66Z"/><path class="cls-1" d="M408.46,491.1v58.6h-7.62V491.1Z"/><path class="cls-1" d="M457.21,491.14a12.34,12.34,0,0,1,12.33,12.3q0,5.24-5.27,6.48,3.81.54,8.66,5.41t4.85,13.47a20.68,20.68,0,0,1-6,14.86q-5.69,5.9-11.39,6v.07h-15V491.14Zm-4.29,7.58V508h4.95a4.76,4.76,0,0,0,2.89-1.28,4.2,4.2,0,0,0,1.31-3.26,4.51,4.51,0,0,0-1.37-3.39,4.79,4.79,0,0,0-3.49-1.33Zm0,17v26.32h7.43V542c1.57-.1,3.51-1.35,5.82-3.77A13,13,0,0,0,470,528.8a13.08,13.08,0,0,0-13-13Z"/><path class="cls-1" d="M486.56,491.14h7.61v25q3.19-6.11,9.23-6.11a11.9,11.9,0,0,1,9.64,4.34,17,17,0,0,1,3.72,10.89V549.7h-7.58V525.51a8.7,8.7,0,0,0-1.85-5.58q-1.84-2.32-5.84-2.33-4.71,0-7.32,5V549.7h-7.61Z"/><path class="cls-1" d="M560.38,513.69v-2.64H568v37.7h-7.62V544a17.2,17.2,0,0,1-12.73,5.67,20.83,20.83,0,1,1,0-41.65A17.24,17.24,0,0,1,560.38,513.69Zm0,18v-5.57a12.32,12.32,0,0,0-3.51-6.44,13,13,0,1,0,0,18.45A12.32,12.32,0,0,0,560.38,531.66Z"/><path class="cls-1" d="M583.77,512V497.91h7.58V512h6.77v7.58h-6.77V549.7h-7.58V519.62H577V512Z"/><path class="cls-1" d="M615.14,512V549.7h-7.58V512Z"/><path class="cls-1" d="M659.39,513.69v-2.64H667v37.7h-7.61V544a17.22,17.22,0,0,1-12.74,5.67,20.83,20.83,0,1,1,0-41.65A17.27,17.27,0,0,1,659.39,513.69Zm0,18v-5.57a12.27,12.27,0,0,0-3.52-6.44,13,13,0,1,0,0,18.45A12.27,12.27,0,0,0,659.39,531.66Z"/><path class="cls-2" d="M286.17,490.19a5.29,5.29,0,0,1,0,7.54,5.34,5.34,0,0,1-7.5,0,5.31,5.31,0,0,1,0-7.54,5.34,5.34,0,0,1,7.5,0Z"/><path class="cls-2" d="M615.1,498.1a5.31,5.31,0,0,1,0,7.54,5.23,5.23,0,0,1-3.77,1.53,5.17,5.17,0,0,1-3.73-1.53,5.31,5.31,0,0,1,3.73-9.08A5.19,5.19,0,0,1,615.1,498.1Z"/></svg>