<svg xmlns="http://www.w3.org/2000/svg" width="60" height="59.965" viewBox="0 0 60 59.965">
  <g id="Native_App" data-name="Native App" transform="translate(0 0.1)">
    <path id="Path_837" data-name="Path 837" d="M125.765,44.646a13.681,13.681,0,0,1-.516,1.408,4.687,4.687,0,0,1-3.223,2.488v2.316c0,1.408.016,2.816,0,4.209a4.669,4.669,0,0,1-4.772,4.787c-6.18.016-12.375.016-18.555,0a4.659,4.659,0,0,1-4.772-4.787V17.83a4.668,4.668,0,0,1,4.85-4.819H117.16a4.675,4.675,0,0,1,4.866,4.866V46.445a2.484,2.484,0,0,0,1.862-2.253c.016-.188.016-.391.016-.579V4.922a2.838,2.838,0,0,0-3.145-3.145H78V-.1h43.807a3.522,3.522,0,0,0,.376.125,4.682,4.682,0,0,1,3.223,2.707c.156.36.266.767.391,1.142Q125.75,24.291,125.765,44.646ZM95.82,19.613v32.73H120.1V19.629h-4.725c-.047.141-.078.25-.11.36-.532,1.815-1.314,2.409-3.207,2.409h-8.48a2.613,2.613,0,0,1-2.8-1.987c-.094-.25-.156-.516-.25-.8Zm24.3-1.893a2.807,2.807,0,0,0-2.91-2.816H103.33c-1.6,0-3.207-.016-4.8,0a2.717,2.717,0,0,0-2.707,2.8h5.366c.751,0,1.064.3,1.142,1.033a5.2,5.2,0,0,0,.141.86c.188.735.438.907,1.2.907,2.863,0,5.742-.016,8.6.016a1,1,0,0,0,1.111-.8,5.236,5.236,0,0,0,.172-.86c.094-.907.36-1.158,1.252-1.158C116.566,17.72,118.318,17.72,120.117,17.72ZM120.086,54.3H95.8c-.36,2.456,1.252,3.771,3.348,3.739,5.93-.078,11.859-.031,17.789-.031a4.505,4.505,0,0,0,.923-.063C119.492,57.6,120.305,56.27,120.086,54.3Z" transform="translate(-65.797)" fill="#212121"/>
    <path id="Path_838" data-name="Path 838" d="M6.555,0V1.877H4.725A2.784,2.784,0,0,0,1.877,4.741v34.2c0,.11.016.235.016.407H26.206V41.21H1.924a25.959,25.959,0,0,0,.031,3.317,2.738,2.738,0,0,0,2.91,2.331h21.34V48.72H20.433c-.156.626-.313,1.22-.469,1.877H26.19V52.49h-.61c-2.065,0-4.146.047-6.211-.016-1.549-.047-1.705.61-1.518,1.877h8.323v1.862c-.172.016-.36.031-.563.031H17.179c-.97,0-1.267-.3-1.267-1.252,0-.532-.016-1.048,0-1.58a2.631,2.631,0,0,1,1.565-2.472,1.111,1.111,0,0,0,.657-.86c.094-.422.2-.829.313-1.33H4.96A4.739,4.739,0,0,1,0,43.729V5.147A4.713,4.713,0,0,1,3.9.063C3.927.047,3.958.016,3.99,0Z" transform="translate(0 -0.084)" fill="#212121"/>
    <path id="Path_839" data-name="Path 839" d="M55.777,0V1.831H53.9V0Z" transform="translate(-45.467 -0.084)" fill="#212121"/>
    <path id="Path_840" data-name="Path 840" d="M43.966,32.454c.438,0,.86-.016,1.3,0a.932.932,0,0,1,.986,1c.016,1.2.016,2.425,0,3.63a.924.924,0,0,1-1,.986c-.422.016-.86,0-1.283,0a11.166,11.166,0,0,0-.5,1.22.7.7,0,0,0,.094.532,9.9,9.9,0,0,0,.688.72.924.924,0,0,1,0,1.361c-.86.876-1.721,1.752-2.613,2.613A.852.852,0,0,1,40.29,44.5a1.469,1.469,0,0,0-2.253-.375,1.308,1.308,0,0,1-.25.11c0,.422.016.845,0,1.283a.924.924,0,0,1-.986,1c-1.2.016-2.425.016-3.63,0a.932.932,0,0,1-1-.986c-.016-.422,0-.86,0-1.283a1.68,1.68,0,0,1-.235-.11,1.458,1.458,0,0,0-2.253.36.865.865,0,0,1-1.377,0c-.86-.845-1.721-1.705-2.566-2.566a.852.852,0,0,1,0-1.346,1.488,1.488,0,0,0,.375-2.3c-.031-.047-.047-.11-.094-.2-.407,0-.845.016-1.267,0a.942.942,0,0,1-1.017-1.033q-.023-1.784,0-3.567a.942.942,0,0,1,1.033-1.017h.063c1.3-.031,1.3-.031,1.721-1.3a.787.787,0,0,0-.063-.407c-.016-.063-.11-.11-.156-.172-1.236-1.252-1.236-1.346,0-2.566l1.909-1.909a.982.982,0,0,1,1.58,0c.97.907.97.923,2.143.282a.579.579,0,0,0,.219-.391c.031-.329,0-.657.016-1a.916.916,0,0,1,.954-.97c1.236-.016,2.456-.016,3.692,0a.92.92,0,0,1,.97,1c.016.219,0,.422,0,.641v.61c.454.188.892.391,1.33.563a.522.522,0,0,0,.391-.11c.25-.219.469-.469.72-.688a.942.942,0,0,1,1.439.016c.845.814,1.658,1.643,2.488,2.488.485.5.548,1.064.016,1.471a1.368,1.368,0,0,0-.375,2.1C43.872,32.2,43.9,32.313,43.966,32.454Zm-3.113-4.522a7.166,7.166,0,0,1-.532.673c-.532.548-.814.548-1.5.219-.641-.313-1.314-.579-1.987-.829-.657-.235-.876-.469-.876-1.189v-.892H34.078v.829c0,.8-.188,1-.939,1.267-.688.25-1.377.548-2.034.86a.987.987,0,0,1-1.314-.188c-.219-.235-.422-.5-.61-.735l-1.424,1.424c.188.172.407.36.61.563a1.031,1.031,0,0,1,.2,1.5,16.354,16.354,0,0,0-.814,1.94c-.25.735-.454.923-1.267.939h-.829v1.877h1.017a1.023,1.023,0,0,1,1.048.767c.3.767.595,1.518.939,2.253a.967.967,0,0,1-.172,1.22c-.25.235-.532.438-.814.673l1.439,1.439c.235-.266.469-.532.72-.782a.992.992,0,0,1,1.236-.172c.735.329,1.5.641,2.253.939a1.027,1.027,0,0,1,.767,1.048v1h1.877V43.562a.994.994,0,0,1,.767-1.033q1.15-.422,2.253-.939a.97.97,0,0,1,1.22.188c.235.25.438.532.657.8.532-.532.939-.954,1.455-1.486-.266-.219-.532-.422-.8-.673a.973.973,0,0,1-.172-1.22c.344-.735.641-1.5.939-2.253a1.027,1.027,0,0,1,1.048-.767h1V34.3H43.325a1.01,1.01,0,0,1-1.033-.767q-.422-1.15-.939-2.253a.967.967,0,0,1,.172-1.22c.25-.235.532-.454.8-.657C41.792,28.887,41.369,28.464,40.853,27.932Z" transform="translate(-20.013 -20.351)" fill="#212121"/>
    <path id="Path_841" data-name="Path 841" d="M92.282,170.1a1.683,1.683,0,0,1,.11-.235,1.458,1.458,0,0,0-.36-2.253.857.857,0,0,1,.016-1.377c.829-.845,1.674-1.69,2.519-2.519.469-.454,1.048-.516,1.424,0a1.378,1.378,0,0,0,2.143.375,3.386,3.386,0,0,1,.313-.141c0-.407-.016-.829,0-1.267a.933.933,0,0,1,.97-1.017c1.2-.016,2.409,0,3.677,0v1.862h-2.769c0,.376-.016.673,0,.986a1.062,1.062,0,0,1-.86,1.142,19.462,19.462,0,0,0-2.05.845,1.018,1.018,0,0,1-1.455-.219c-.2-.2-.391-.422-.595-.626-.454.469-.876.907-1.392,1.455a6.922,6.922,0,0,1,.641.485,1.036,1.036,0,0,1,.235,1.5,16.353,16.353,0,0,0-.814,1.94c-.25.751-.454.939-1.252.939h-.876v2.785H90.045c0-1.3-.031-2.6.016-3.9a.819.819,0,0,1,.892-.751C91.39,170.08,91.828,170.1,92.282,170.1Z" transform="translate(-75.948 -136.448)" fill="#212121"/>
    <path id="Path_842" data-name="Path 842" d="M251.7,26V24.2h12.11V26Z" transform="translate(-212.321 -20.498)" fill="#212121"/>
    <path id="Path_843" data-name="Path 843" d="M136.732,203.882v1.784c-1.815.36-2.566,1.111-2.8,2.832h-1.768A4.492,4.492,0,0,1,136.732,203.882Z" transform="translate(-111.464 -172.066)" fill="#212121"/>
    <path id="Path_844" data-name="Path 844" d="M48.1,277.5v-1.8h5.554v1.8Z" transform="translate(-40.575 -232.65)" fill="#212121"/>
    <path id="Path_845" data-name="Path 845" d="M343.4,26.015h-1.8V24.2h1.8Z" transform="translate(-288.155 -20.498)" fill="#212121"/>
    <path id="Path_846" data-name="Path 846" d="M24.1,275.6h1.815v1.815H24.1Z" transform="translate(-20.329 -232.566)" fill="#212121"/>
    <path id="Path_847" data-name="Path 847" d="M216.171,98.626h-5.3c-.892,0-1.158.25-1.252,1.158a5.584,5.584,0,0,1-.172.86.969.969,0,0,1-1.111.8c-2.863-.031-5.742-.016-8.6-.016-.767,0-1-.172-1.2-.907a5.478,5.478,0,0,1-.141-.86c-.078-.735-.391-1.033-1.142-1.033h-5.366a2.708,2.708,0,0,1,2.707-2.8c1.6-.031,3.207,0,4.8,0H213.26A2.775,2.775,0,0,1,216.171,98.626Zm-8.433-.892H200.29v1.784h7.447Z" transform="translate(-161.85 -80.905)" fill="#35cc62"/>
    <path id="Path_848" data-name="Path 848" d="M215.831,347.6c.2,1.987-.595,3.3-2.222,3.645a4.578,4.578,0,0,1-.923.063c-5.93,0-11.859-.047-17.789.031a3.071,3.071,0,0,1-3.348-3.739Zm-8.4.939h-7.416v1.8h7.416Z" transform="translate(-161.541 -293.301)" fill="#35cc62"/>
    <path id="Path_849" data-name="Path 849" d="M51.292,38.118c.532.516.954.939,1.471,1.471-.266.219-.548.422-.8.657a.954.954,0,0,0-.172,1.22c.329.735.641,1.5.939,2.253a1.006,1.006,0,0,0,1.033.767h1.017v1.877h-1a1.011,1.011,0,0,0-1.048.767q-.422,1.15-.939,2.253a.948.948,0,0,0,.172,1.22c.25.235.532.454.8.673-.516.516-.923.939-1.455,1.486-.219-.266-.422-.548-.657-.8a.976.976,0,0,0-1.22-.188c-.735.329-1.5.641-2.253.939a1.006,1.006,0,0,0-.767,1.033v1.017H44.533v-1a1.011,1.011,0,0,0-.767-1.048c-.767-.3-1.518-.595-2.253-.939a1,1,0,0,0-1.236.172c-.25.25-.469.516-.72.782l-1.439-1.439c.282-.219.563-.438.814-.673A.954.954,0,0,0,39.1,49.4c-.329-.735-.641-1.5-.939-2.253a1.011,1.011,0,0,0-1.048-.767H36.1V44.5h.829c.8,0,1-.188,1.267-.939a14.969,14.969,0,0,1,.814-1.94c.329-.688.329-.97-.2-1.5-.2-.2-.422-.391-.61-.563.485-.469.907-.892,1.424-1.424a8.429,8.429,0,0,0,.61.735.99.99,0,0,0,1.314.188,16.5,16.5,0,0,1,2.034-.86c.751-.266.923-.469.939-1.267V36.1h1.877v.892c0,.72.219.954.876,1.189a18.357,18.357,0,0,1,1.987.829c.688.329.97.329,1.5-.219A7.163,7.163,0,0,0,51.292,38.118Zm-5.867,2.644a4.686,4.686,0,1,0,4.694,4.631A4.707,4.707,0,0,0,45.425,40.762Z" transform="translate(-30.452 -30.536)" fill="#bfdbf7"/>
    <path id="Path_850" data-name="Path 850" d="M203.6,178.041a10.3,10.3,0,1,1,10.295,10.279A10.3,10.3,0,0,1,203.6,178.041Zm10.326,8.386a8.425,8.425,0,1,0-8.464-8.417A8.43,8.43,0,0,0,213.926,186.427Z" transform="translate(-171.746 -141.547)" fill="#212121"/>
    <path id="Path_851" data-name="Path 851" d="M253.147,108.1v1.784H245.7V108.1Z" transform="translate(-207.259 -91.272)" fill="#212121"/>
    <path id="Path_852" data-name="Path 852" d="M253.316,353.6v1.8H245.9v-1.8Z" transform="translate(-207.428 -298.362)" fill="#212121"/>
    <path id="Path_853" data-name="Path 853" d="M70.478,65.9A4.686,4.686,0,1,1,65.8,70.609,4.695,4.695,0,0,1,70.478,65.9Zm0,7.478a2.808,2.808,0,1,0-2.785-2.863A2.828,2.828,0,0,0,70.478,73.378Z" transform="translate(-55.505 -55.674)" fill="#212121"/>
    <path id="Path_854" data-name="Path 854" d="M224.048,196.466a8.433,8.433,0,1,1,8.417-8.5A8.43,8.43,0,0,1,224.048,196.466Zm-1.815-9.81c-.094-.016-.125-.016-.141-.031-.329-.329-.673-.657-1-.97a.98.98,0,0,0-1.611,0c-.845.829-1.69,1.674-2.519,2.519a.965.965,0,0,0,0,1.611c1.455,1.471,2.926,2.926,4.381,4.381.595.595,1.048.595,1.658-.016,2.691-2.691,5.382-5.366,8.057-8.057.641-.641.641-1.08-.016-1.737-.767-.782-1.549-1.549-2.315-2.316-.751-.735-1.126-.751-1.862-.016C225.316,183.558,223.767,185.107,222.233,186.656Z" transform="translate(-181.868 -151.585)" fill="#bfdbf7"/>
    <path id="Path_855" data-name="Path 855" d="M227.232,196.8c1.533-1.549,3.082-3.082,4.631-4.631.735-.735,1.126-.72,1.862.016l2.316,2.316c.657.657.673,1.1.016,1.737-2.691,2.691-5.366,5.382-8.057,8.057-.61.61-1.064.61-1.658.016-1.471-1.455-2.926-2.926-4.381-4.381a.965.965,0,0,1,0-1.611c.829-.845,1.674-1.69,2.519-2.519a.98.98,0,0,1,1.611,0c.344.329.673.657,1,.97C227.106,196.784,227.122,196.768,227.232,196.8Zm-1.8.86c-.61.579-1.1,1.017-1.5,1.408l3.239,3.239c2.3-2.284,4.647-4.615,6.962-6.931-.454-.438-.923-.907-1.424-1.392-.125.11-.266.25-.391.375-1.3,1.3-2.6,2.6-3.9,3.88-1.2,1.2-1.346,1.2-2.519.016A7.033,7.033,0,0,1,225.432,197.66Z" transform="translate(-186.867 -161.729)" fill="#212121"/>
  </g>
</svg>
