<svg xmlns="http://www.w3.org/2000/svg" width="56.2" height="50" viewBox="0 0 56.2 50">
  <g id="React" transform="translate(0.034)" opacity="0.5">
    <path id="Path_894" data-name="Path 894" d="M10.84,41.914a28.56,28.56,0,0,1,.811-6.8c.106-.458.047-.623-.435-.764a22.639,22.639,0,0,1-8.684-4.571,10.029,10.029,0,0,1-1.081-1.152A5.3,5.3,0,0,1,1.6,21.116a16.9,16.9,0,0,1,6.134-4.089,26.762,26.762,0,0,1,3.525-1.257c.458-.129.505-.341.411-.74A26.423,26.423,0,0,1,10.9,7.238a12.172,12.172,0,0,1,.67-3.431A5.22,5.22,0,0,1,18.078.188,18.327,18.327,0,0,1,25.293,3.8,23.551,23.551,0,0,1,27.7,5.84c.306.306.482.294.8,0a26.037,26.037,0,0,1,5.981-4.383A10.942,10.942,0,0,1,39.546,0a4.751,4.751,0,0,1,4.406,2.585,11.163,11.163,0,0,1,1.293,5.053,26.72,26.72,0,0,1-.764,7.485c-.094.411.012.529.388.646a24.738,24.738,0,0,1,8.167,3.96,9.881,9.881,0,0,1,1.962,2,5.023,5.023,0,0,1,0,6.439,14.5,14.5,0,0,1-5.194,4.1,28.521,28.521,0,0,1-4.818,1.951c-.376.118-.482.235-.388.646a25.041,25.041,0,0,1,.658,8.308,12.648,12.648,0,0,1-.611,2.8c-1.152,3.278-3.619,4.618-7,3.8a18.446,18.446,0,0,1-7.191-3.9c-.658-.529-1.281-1.081-1.892-1.669-.294-.282-.447-.282-.74,0a24.671,24.671,0,0,1-6.651,4.63,10.959,10.959,0,0,1-4.383,1.128,5.021,5.021,0,0,1-4.947-3.173A11.744,11.744,0,0,1,10.84,41.914Zm17.779-7.873c.917.012,2.562-.047,4.195-.129a.782.782,0,0,0,.658-.4,80.228,80.228,0,0,0,4.688-8.167.689.689,0,0,0,.012-.705A83.927,83.927,0,0,0,33.436,16.5a.818.818,0,0,0-.717-.4,80.932,80.932,0,0,0-9.248,0,.924.924,0,0,0-.8.47,72.109,72.109,0,0,0-4.618,8,.9.9,0,0,0-.012.881,72.179,72.179,0,0,0,4.7,8.1.82.82,0,0,0,.717.388C24.929,34.018,26.421,34.018,28.618,34.041ZM2.379,24.958a3.2,3.2,0,0,0,.388,1.3,6.735,6.735,0,0,0,1.516,1.845,21.508,21.508,0,0,0,7.8,4c.317.106.4-.059.482-.317a53.57,53.57,0,0,1,2.456-6.369.909.909,0,0,0-.012-.834,54.7,54.7,0,0,1-2.421-6.263c-.118-.364-.247-.388-.576-.282a28.055,28.055,0,0,0-4.982,1.986,11.675,11.675,0,0,0-3.819,2.949A3.365,3.365,0,0,0,2.379,24.958Zm10.869,16.38c0,.317-.024.623,0,.94a9.409,9.409,0,0,0,.917,3.831,2.625,2.625,0,0,0,2.656,1.457,6.8,6.8,0,0,0,1.669-.282,20.414,20.414,0,0,0,7.791-4.923c.259-.235.071-.353-.059-.505a55.786,55.786,0,0,1-4.265-5.276.959.959,0,0,0-.764-.447,47.244,47.244,0,0,1-6.651-.964c-.341-.071-.482.024-.552.364A26.277,26.277,0,0,0,13.249,41.339Zm29.741-.153a28.692,28.692,0,0,0-.682-5.629c-.094-.447-.259-.552-.705-.447a46.931,46.931,0,0,1-6.639,1.011.752.752,0,0,0-.623.341,50.6,50.6,0,0,1-4.23,5.37c-.223.247-.2.388.035.6a32.076,32.076,0,0,0,2.832,2.362,14.894,14.894,0,0,0,5.182,2.62c2.244.541,3.5-.141,4.242-2.327A13.205,13.205,0,0,0,42.989,41.186ZM16.4,2.456a2.4,2.4,0,0,0-2.315,1.6,5.965,5.965,0,0,0-.458,1.257c-.752,3.173-.247,6.287.447,9.389.082.388.353.235.552.188a61.242,61.242,0,0,1,6.71-1.034.618.618,0,0,0,.494-.247A53.72,53.72,0,0,1,26.2,8.19c.188-.2.188-.329-.024-.517A23.917,23.917,0,0,0,19.911,3.3,8.5,8.5,0,0,0,16.4,2.456ZM42.884,8.543c-.024-.411-.047-1.034-.118-1.645A7.664,7.664,0,0,0,41.72,3.572a2.346,2.346,0,0,0-1.81-1.14,5.766,5.766,0,0,0-2.409.329,21.591,21.591,0,0,0-7.473,4.912c-.235.212-.153.341.024.517a53.609,53.609,0,0,1,4.277,5.347.646.646,0,0,0,.517.317,55.544,55.544,0,0,1,6.815,1.069c.353.082.435-.024.505-.317A30.616,30.616,0,0,0,42.884,8.543ZM53.776,24.911c-.012-.094-.035-.235-.059-.364a4.773,4.773,0,0,0-1.751-2.562,21.676,21.676,0,0,0-7.943-3.96c-.4-.118-.364.165-.423.364a55.035,55.035,0,0,1-2.432,6.193.8.8,0,0,0,.012.764,50.8,50.8,0,0,1,2.515,6.287c.129.388.27.411.623.294a29.454,29.454,0,0,0,3.913-1.551,13.837,13.837,0,0,0,4.536-3.243A3.777,3.777,0,0,0,53.776,24.911ZM39.617,27.755c-1.069,2.033-2.139,3.889-3.337,5.8a49.266,49.266,0,0,0,4.971-.823c.282-.059.2-.2.141-.388A42.657,42.657,0,0,0,39.617,27.755Zm-23.043.082c-.67,1.575-1.222,3.067-1.716,4.583-.106.317-.024.4.282.447.482.071.952.2,1.434.282a25.474,25.474,0,0,0,3.314.423C18.677,31.668,17.608,29.823,16.574,27.837Zm8.214,8.531c1.046,1.41,2.092,2.644,3.173,3.842.2.223.317.118.458-.047.6-.717,1.21-1.422,1.8-2.15a10.6,10.6,0,0,0,1.2-1.645A59.374,59.374,0,0,1,24.788,36.368Zm-.012-22.749c2.256-.118,4.371-.094,6.616,0-1.011-1.363-2-2.55-3.032-3.7-.176-.188-.294-.259-.505-.024C26.82,11.057,25.81,12.244,24.776,13.619Zm11.5,2.832c1.2,1.892,2.256,3.737,3.314,5.711a44.961,44.961,0,0,0,1.727-4.571c.106-.317-.141-.306-.317-.341C39.488,16.921,37.948,16.651,36.28,16.451Zm-16.416.012c-1.657.188-3.184.458-4.7.776-.294.059-.353.188-.27.447.494,1.492,1.022,2.985,1.68,4.489C17.6,20.211,18.677,18.354,19.864,16.463Z" transform="translate(0)" fill="#212121"/>
    <path id="Path_895" data-name="Path 895" d="M206.611,174.681a5.006,5.006,0,1,1-5.041-4.982A4.978,4.978,0,0,1,206.611,174.681Z" transform="translate(-173.528 -149.758)" fill="#212121"/>
  </g>
</svg>
