<svg xmlns="http://www.w3.org/2000/svg" width="52.735" height="50" viewBox="0 0 52.735 50">
  <g id="Redux" transform="translate(0 -0.082)" opacity="0.5">
    <path id="Path_896" data-name="Path 896" d="M0,251.256c.069-.552.148-1.094.217-1.646a15.436,15.436,0,0,1,3.41-7.766,20.2,20.2,0,0,1,3.863-3.7A1.393,1.393,0,0,1,7.766,238c.276,1.025.552,2.011.779,3.006.03.138-.177.384-.335.512a16.144,16.144,0,0,0-4.337,5.46A9.929,9.929,0,0,0,6.18,258.815a9.607,9.607,0,0,0,5.155,2.218A18.633,18.633,0,0,0,23.4,258.5a24.247,24.247,0,0,0,9.915-9.609.733.733,0,0,0-.059-.946,3.624,3.624,0,0,1-.01-4.425,3.68,3.68,0,0,1,4.268-1.232,3.749,3.749,0,0,1,2.385,3.755,3.7,3.7,0,0,1-2.838,3.312.985.985,0,0,0-.739.552,25.56,25.56,0,0,1-18.174,13.847,19.321,19.321,0,0,1-4.81.552,16.152,16.152,0,0,1-7.293-1.892,10.988,10.988,0,0,1-5.7-8.042c-.108-.572-.138-1.163-.217-1.744A4.859,4.859,0,0,0,0,252.143Z" transform="translate(0 -214.469)" fill="#212121"/>
    <path id="Path_897" data-name="Path 897" d="M137.168,16.4c-.808-.246-1.557-.512-2.326-.69a1.051,1.051,0,0,1-.946-1.045,16.692,16.692,0,0,0-3.43-8.032,8.5,8.5,0,0,0-5.519-3.381,11.477,11.477,0,0,0-11.63,6.682,18.986,18.986,0,0,0-1.991,7.185,24.636,24.636,0,0,0,1.587,11.413c.473,1.163,1.084,2.277,1.626,3.41a.63.63,0,0,0,.719.4,3.695,3.695,0,1,1,.325,7.382,3.751,3.751,0,0,1-3.5-5.283.752.752,0,0,0-.069-.611,32.916,32.916,0,0,1-3.282-8.377,25.784,25.784,0,0,1-.562-8.427,21.947,21.947,0,0,1,3.213-9.944A14.394,14.394,0,0,1,121.034.311a11.688,11.688,0,0,1,10.22,2.848,17.091,17.091,0,0,1,5.371,9.383c.266,1.124.4,2.287.591,3.43C137.207,16.089,137.178,16.218,137.168,16.4Z" transform="translate(-97.4 0)" fill="#212121"/>
    <path id="Path_898" data-name="Path 898" d="M204.881,188.766c.9-.729,1.754-1.429,2.631-2.119a.573.573,0,0,1,.473-.069,19.289,19.289,0,0,0,4.445,1.153c4.731.621,9.274-1.074,11.452-6.189a9.109,9.109,0,0,0-.1-6.978,17.718,17.718,0,0,0-6.5-8.367,25.318,25.318,0,0,0-11.393-4.622c-1.469-.207-2.967-.187-4.455-.286a.712.712,0,0,0-.729.443,3.634,3.634,0,0,1-4.258,1.685,3.695,3.695,0,0,1,.039-7.076,3.617,3.617,0,0,1,4,1.38.968.968,0,0,0,.917.473,29.43,29.43,0,0,1,14.1,3.223,24.183,24.183,0,0,1,9.964,9.432,15.226,15.226,0,0,1,1.981,6.86,11.023,11.023,0,0,1-2.336,7.845,14.26,14.26,0,0,1-8.348,4.9,18.872,18.872,0,0,1-11.807-1.6C204.94,188.835,204.921,188.806,204.881,188.766Z" transform="translate(-174.733 -140.725)" fill="#212121"/>
  </g>
</svg>
